<?xml version="1.0" standalone="no"?>
<!DOCTYPE svg PUBLIC "-//W3C//DTD SVG 20010904//EN"
 "http://www.w3.org/TR/2001/REC-SVG-20010904/DTD/svg10.dtd">
<svg version="1.0" xmlns="http://www.w3.org/2000/svg"
 width="1959.000000pt" height="1959.000000pt" viewBox="0 0 1959.000000 1959.000000"
 preserveAspectRatio="xMidYMid meet">
<metadata>
Created by potrace 1.11, written by Peter Selinger 2001-2013
</metadata>
<g transform="translate(0.000000,1959.000000) scale(0.100000,-0.100000)"
fill="#000000" stroke="none">
<path d="M2752 18368 c0 -238 -1 -451 -1 -474 l-1 -40 -130 -26 c-197 -39
-322 -109 -377 -212 -15 -28 -14 -148 2 -536 2 -52 6 -178 10 -280 3 -102 8
-232 10 -290 4 -96 10 -264 20 -590 2 -69 6 -181 9 -250 3 -69 9 -201 12 -295
3 -93 7 -215 9 -270 2 -55 7 -194 10 -310 4 -115 8 -225 10 -243 2 -24 0 -30
-9 -23 -15 13 -97 -103 -308 -437 -10 -15 -21 -34 -25 -42 -4 -8 -29 -52 -55
-98 -189 -328 -395 -823 -518 -1242 -12 -41 -26 -86 -31 -100 -7 -21 -62 -228
-75 -279 -38 -158 -85 -362 -89 -381 -2 -14 -16 -81 -31 -150 -14 -69 -27
-134 -28 -145 -2 -11 -6 -33 -9 -50 -4 -16 -9 -43 -12 -60 -5 -30 -10 -57 -20
-105 -12 -62 -16 -100 -8 -101 9 -2 178 -5 612 -13 172 -3 315 -7 316 -8 2 -2
-3 -28 -11 -58 -19 -73 -62 -257 -69 -298 -3 -18 -12 -63 -19 -100 -8 -37 -17
-85 -20 -107 -4 -22 -13 -80 -21 -130 -8 -49 -17 -110 -20 -135 -4 -25 -8 -56
-10 -70 -2 -14 -7 -54 -10 -90 -3 -36 -8 -83 -10 -105 -5 -50 -16 -184 -20
-250 -5 -70 -4 -548 0 -615 3 -30 5 -70 6 -88 2 -21 7 -32 15 -30 7 2 124 112
261 244 136 133 280 272 318 308 39 37 125 122 193 188 83 81 122 114 123 101
0 -10 1 -666 3 -1458 2 -792 6 -1471 9 -1510 4 -38 9 -104 12 -145 3 -41 7
-95 10 -120 3 -25 7 -70 9 -101 3 -30 7 -66 10 -80 3 -13 8 -49 11 -80 3 -31
8 -67 11 -80 2 -13 7 -42 9 -64 5 -35 25 -154 41 -240 44 -240 123 -554 209
-825 34 -110 146 -422 170 -474 7 -17 39 -92 70 -166 222 -523 537 -1058 904
-1530 88 -113 191 -240 211 -260 3 -3 20 -23 39 -45 199 -234 619 -644 817
-797 16 -12 34 -28 39 -34 51 -56 482 -365 725 -519 105 -67 151 -95 155 -95
3 0 23 -11 45 -25 22 -14 66 -39 97 -56 32 -17 82 -44 111 -60 304 -170 778
-371 1147 -489 222 -71 568 -164 680 -184 46 -8 88 -16 105 -21 15 -4 236 -44
275 -50 44 -6 121 -17 144 -21 52 -8 108 -15 156 -19 28 -3 79 -7 115 -11 36
-3 76 -8 90 -10 114 -19 825 -26 1045 -12 177 13 305 24 365 33 14 2 50 6 80
9 30 3 64 7 75 10 11 2 45 7 75 11 30 4 64 9 75 11 10 2 37 6 60 10 22 3 58 9
80 14 37 8 55 12 138 25 17 3 61 13 97 21 36 9 76 18 90 20 240 46 728 200
1060 333 100 41 130 53 245 104 77 34 452 222 532 266 39 22 123 71 185 109
62 38 124 75 137 83 27 15 287 188 335 223 53 37 281 209 286 215 3 4 25 22
50 41 25 19 90 72 145 119 903 770 1586 1731 2015 2836 42 109 185 531 194
577 3 12 15 57 26 98 11 41 22 82 24 90 2 8 11 43 20 77 25 96 78 349 96 458
5 33 12 69 14 80 2 11 7 42 10 68 4 27 9 57 11 67 2 10 6 46 10 79 3 33 8 69
10 80 2 11 6 48 10 83 3 35 8 79 10 98 4 32 9 95 22 255 2 33 6 717 8 1520 2
803 4 1466 4 1472 1 7 25 -11 55 -40 164 -160 537 -521 594 -575 37 -35 110
-106 164 -158 53 -52 98 -91 101 -87 22 35 23 665 2 873 -2 25 -7 79 -10 120
-3 41 -8 86 -10 100 -2 14 -6 52 -10 85 -4 32 -9 68 -11 80 -2 11 -6 40 -9 65
-2 25 -13 99 -25 165 -28 161 -24 142 -59 305 -30 138 -42 188 -62 254 -5 16
-7 31 -5 33 4 4 157 7 778 17 81 1 150 4 153 8 5 5 -1 47 -30 203 -3 17 -10
53 -16 80 -5 28 -12 66 -15 85 -7 43 -69 332 -90 419 -9 36 -17 72 -19 80 -2
9 -13 54 -25 101 -12 47 -23 92 -25 100 -8 38 -51 189 -92 325 -189 622 -445
1160 -791 1665 -88 128 -99 143 -107 130 -3 -5 -4 -14 -1 -18 2 -4 1 -14 -4
-22 -5 -8 -7 17 -5 61 2 41 6 151 9 244 4 94 8 231 11 305 8 239 16 442 20
545 2 55 7 186 10 290 4 105 8 237 10 295 4 120 15 424 20 550 2 47 6 177 10
290 4 113 8 241 10 285 10 210 8 232 -14 269 -31 50 -115 122 -170 147 -48 22
-159 53 -226 63 -126 20 -115 15 -116 55 0 20 -1 233 -1 474 l-1 437 -7032 0
-7032 0 -1 -432z m-412 -3935 c0 -37 -2 -64 -4 -62 -8 8 -12 137 -4 133 4 -3
8 -35 8 -71z m14907 -45 c-2 -13 -4 -5 -4 17 -1 22 1 32 4 23 2 -10 2 -28 0
-40z m-2 -77 c3 -5 2 -12 -3 -15 -5 -3 -9 1 -9 9 0 17 3 19 12 6z m-14897 -46
c-3 -3 -9 2 -12 12 -6 14 -5 15 5 6 7 -7 10 -15 7 -18z m6622 -8695 c0 -5 -4
-10 -10 -10 -5 0 -10 5 -10 10 0 6 5 10 10 10 6 0 10 -4 10 -10z m1065 -880
c-3 -5 -12 -10 -18 -10 -7 0 -6 4 3 10 19 12 23 12 15 0z m975 -1534 c0 -3 -4
-8 -10 -11 -5 -3 -10 -1 -10 4 0 6 5 11 10 11 6 0 10 -2 10 -4z m-2323 -12
c-3 -3 -12 -4 -19 -1 -8 3 -5 6 6 6 11 1 17 -2 13 -5z m-597 -28 c0 -3 -4 -8
-10 -11 -5 -3 -10 -1 -10 4 0 6 5 11 10 11 6 0 10 -2 10 -4z m234 -84 c3 -5
-1 -9 -9 -9 -8 0 -12 4 -9 9 3 4 7 8 9 8 2 0 6 -4 9 -8z m1853 -60 c-10 -10
-14 -22 -10 -27 5 -4 3 -5 -3 -2 -6 3 -21 -3 -32 -14 -12 -11 -22 -17 -22 -13
0 7 71 73 79 74 2 0 -3 -8 -12 -18z m-3203 -500 c3 -5 -1 -9 -9 -9 -8 0 -12 4
-9 9 3 4 7 8 9 8 2 0 6 -4 9 -8z m6956 -98 c0 -8 -19 -13 -24 -6 -3 5 1 9 9 9
8 0 15 -2 15 -3z m-8343 -19 c0 -8 -4 -12 -9 -9 -5 3 -6 10 -3 15 9 13 12 11
12 -6z m863 -5 c0 -5 -2 -10 -4 -10 -3 0 -8 5 -11 10 -3 6 -1 10 4 10 6 0 11
-4 11 -10z m6645 -80 c-3 -5 -12 -10 -18 -10 -7 0 -6 4 3 10 19 12 23 12 15 0z
m755 -20 c0 -5 -2 -10 -4 -10 -3 0 -8 5 -11 10 -3 6 -1 10 4 10 6 0 11 -4 11
-10z m-1605 -20 c3 -5 1 -10 -4 -10 -6 0 -11 5 -11 10 0 6 2 10 4 10 3 0 8 -4
11 -10z m1130 0 c-3 -5 -12 -10 -18 -10 -7 0 -6 4 3 10 19 12 23 12 15 0z
m-5565 -70 c0 -5 -2 -10 -4 -10 -3 0 -8 5 -11 10 -3 6 -1 10 4 10 6 0 11 -4
11 -10z m37 4 c-3 -3 -12 -4 -19 -1 -8 3 -5 6 6 6 11 1 17 -2 13 -5z m3923 -3
c0 -5 -9 -7 -20 -4 -11 3 -20 7 -20 9 0 2 9 4 20 4 11 0 20 -4 20 -9z m-5085
-11 c3 -5 1 -10 -4 -10 -6 0 -11 5 -11 10 0 6 2 10 4 10 3 0 8 -4 11 -10z
m5405 0 c0 -5 -2 -10 -4 -10 -3 0 -8 5 -11 10 -3 6 -1 10 4 10 6 0 11 -4 11
-10z m1576 -42 c3 -4 -1 -5 -10 -4 -8 1 -18 5 -22 8 -3 4 1 5 10 4 8 -1 18 -5
22 -8z m-7656 -34 c0 -2 -9 -4 -20 -4 -11 0 -20 4 -20 9 0 5 9 7 20 4 11 -3
20 -7 20 -9z m30 6 c0 -5 -5 -10 -11 -10 -5 0 -7 5 -4 10 3 6 8 10 11 10 2 0
4 -4 4 -10z m30 0 c0 -5 -5 -10 -11 -10 -5 0 -7 5 -4 10 3 6 8 10 11 10 2 0 4
-4 4 -10z m7530 0 c0 -5 -5 -10 -11 -10 -5 0 -7 5 -4 10 3 6 8 10 11 10 2 0 4
-4 4 -10z m24 -5 c-4 -8 -8 -15 -10 -15 -2 0 -4 7 -4 15 0 8 4 15 10 15 5 0 7
-7 4 -15z m-66 -2 c-10 -2 -28 -2 -40 0 -13 2 -5 4 17 4 22 1 32 -1 23 -4z"/>
</g>
</svg>
